<svg width="41" height="40" viewBox="0 0 41 40" fill="none" xmlns="http://www.w3.org/2000/svg">
<g clip-path="url(#clip0_0_1125)">
<path d="M39.3281 33.9003C39.9743 33.9003 40.5 33.3746 40.5 32.7285V24.8249C39.207 24.8506 38.5893 25.1699 37.8163 25.5702C36.9023 26.0436 35.8663 26.58 33.8843 26.58C31.9023 26.58 30.8664 26.0436 29.9523 25.5702C29.1461 25.1527 28.5092 24.8231 27.0981 24.8231C25.687 24.8231 25.0503 25.1528 24.2441 25.5702C23.3301 26.0436 22.2941 26.58 20.3123 26.58C18.3304 26.58 17.2945 26.0436 16.3805 25.5702C15.5744 25.1527 14.9376 24.8231 13.5266 24.8231C12.1155 24.8231 11.4788 25.1528 10.6726 25.5702C9.75859 26.0436 8.72273 26.58 6.74078 26.58C4.75891 26.58 3.72305 26.0436 2.80906 25.5702C2.11477 25.2107 1.5457 24.9165 0.5 24.8417V32.7285C0.5 33.3747 1.0257 33.9004 1.67188 33.9004L39.3281 33.9003ZM32.9649 28.6291H35.4195C36.0667 28.6291 36.5914 29.1538 36.5914 29.801C36.5914 30.4481 36.0667 30.9728 35.4195 30.9728H32.9649C32.3177 30.9728 31.793 30.4481 31.793 29.801C31.793 29.1538 32.3177 28.6291 32.9649 28.6291ZM23.8367 28.6291H26.2913C26.9385 28.6291 27.4632 29.1538 27.4632 29.801C27.4632 30.4481 26.9385 30.9728 26.2913 30.9728H23.8367C23.1895 30.9728 22.6648 30.4481 22.6648 29.801C22.6648 29.1538 23.1895 28.6291 23.8367 28.6291ZM14.7086 28.6291H17.1632C17.8104 28.6291 18.3351 29.1538 18.3351 29.801C18.3351 30.4481 17.8104 30.9728 17.1632 30.9728H14.7086C14.0614 30.9728 13.5367 30.4481 13.5367 29.801C13.5367 29.1538 14.0614 28.6291 14.7086 28.6291ZM5.58039 28.6291H8.035C8.68219 28.6291 9.20687 29.1538 9.20687 29.801C9.20687 30.4481 8.68219 30.9728 8.035 30.9728H5.58039C4.9332 30.9728 4.40852 30.4481 4.40852 29.801C4.40852 29.1538 4.9332 28.6291 5.58039 28.6291Z" fill="#054569"/>
<path d="M3.8868 23.489C4.69297 23.9065 5.32977 24.2362 6.74078 24.2362C8.1518 24.2362 8.78859 23.9064 9.59484 23.489C10.5088 23.0156 11.5447 22.4792 13.5266 22.4792C15.5084 22.4792 16.5443 23.0156 17.4583 23.489C18.2645 23.9065 18.9013 24.2362 20.3123 24.2362C21.7234 24.2362 22.3601 23.9064 23.1663 23.489C24.0803 23.0156 25.1162 22.4792 27.0981 22.4792C29.0801 22.4792 30.116 23.0156 31.0301 23.489C31.8363 23.9065 32.4732 24.2362 33.8843 24.2362C35.2955 24.2362 35.9323 23.9064 36.7386 23.489C37.626 23.0295 38.6285 22.5105 40.5 22.4807V17.988C40.5 17.3419 39.9743 16.8162 39.3281 16.8162H34.0332C32.047 16.8162 30.3491 15.4503 29.9041 13.4946C29.4274 11.3995 28.2384 9.49703 26.5558 8.13781C24.8246 6.73914 22.7305 6 20.5 6C18.2695 6 16.1754 6.73922 14.4442 8.13781C12.7616 9.49703 11.5726 11.3995 11.0959 13.4946C10.6509 15.4502 8.95305 16.8162 6.9668 16.8162H1.67188C1.0257 16.8162 0.5 17.3419 0.5 17.988V22.4936C2.13437 22.5817 3.06047 23.0611 3.8868 23.489ZM20.5 9.20141C23.5977 9.20141 26.1178 11.7216 26.1178 14.8192C26.1178 17.9169 23.5977 20.437 20.5 20.437C17.4023 20.437 14.8822 17.9169 14.8822 14.8192C14.8822 11.7216 17.4023 9.20141 20.5 9.20141Z" fill="#054569"/>
<path d="M20.5006 18.093C22.3088 18.093 23.7747 16.6272 23.7747 14.819C23.7747 13.0108 22.3088 11.5449 20.5006 11.5449C18.6924 11.5449 17.2266 13.0108 17.2266 14.819C17.2266 16.6272 18.6924 18.093 20.5006 18.093Z" fill="#054569"/>
</g>
<defs>
<clipPath id="clip0_0_1125">
<rect width="40" height="40" fill="white" transform="translate(0.5)"/>
</clipPath>
</defs>
</svg>
