<svg width="41" height="38" viewBox="0 0 41 38" fill="none" xmlns="http://www.w3.org/2000/svg">
<path d="M14.5157 32.7528C15.237 33.3862 15.9817 34.0397 16.7477 34.7171C16.7529 34.7217 16.7582 34.7265 16.7635 34.7311L19.3117 36.9322C19.6531 37.2271 20.0769 37.3746 20.5006 37.3746C20.9243 37.3746 21.3482 37.227 21.6896 36.9322L24.2373 34.7311C24.2426 34.7265 24.2478 34.7219 24.2531 34.7173C29.2974 30.2562 33.0795 26.8409 35.8157 23.51C39.0116 19.6197 40.5001 16.1022 40.5001 12.4403C40.5001 5.81508 35.3105 0.625458 28.6855 0.625458C25.7079 0.625458 22.7658 1.74667 20.5006 3.69025C18.2348 1.74655 15.2927 0.625458 12.3149 0.625458C5.68974 0.625337 0.5 5.81508 0.5 12.4402C0.5 20.4486 6.07576 25.3435 14.5157 32.7528ZM13.2257 15.363H18.0751V10.5133H22.9248V15.363H27.7743V20.2125H22.9248V25.0619H18.0751V20.2125H13.2257V15.363Z" fill="#054569"/>
</svg>
