<svg width="41" height="40" viewBox="0 0 41 40" fill="none" xmlns="http://www.w3.org/2000/svg">
<g clip-path="url(#clip0_0_1144)">
<path d="M33.405 30.075L27.02 28.4784L26.4766 26.305C28.185 24.6134 29.355 22.29 29.7016 19.9066C30.6483 19.64 31.3816 18.8283 31.5083 17.81L31.9249 14.4766C32.0133 13.7733 31.7966 13.0616 31.3299 12.5283C31.0566 12.2149 30.7116 11.9783 30.3299 11.8333L30.4833 8.69492L31.1066 8.06992C32.045 7.07156 32.8233 5.35992 31.1966 2.87656C29.9466 0.968359 27.8234 0 24.8834 0C23.7234 0 21.0534 0 18.5667 1.67C11.4666 1.81836 10.5 5.11664 10.5 8.33336C10.5 9.08172 10.6816 10.7667 10.8016 11.7834C10.3733 11.9184 9.985 12.1684 9.68164 12.5134C9.20664 13.0517 8.98664 13.7667 9.075 14.4784L9.49164 17.8117C9.62828 18.8984 10.4533 19.7534 11.4966 19.9567C11.8416 22.2484 12.9516 24.4967 14.5616 26.1601L13.9816 28.4817L7.59664 30.0784C3.41664 31.12 0.5 34.8566 0.5 39.1666C0.5 39.6266 0.873359 40 1.33336 40H39.6667C40.1267 40 40.5001 39.6234 40.5001 39.1634C40.5 34.8566 37.5834 31.12 33.405 30.075Z" fill="#054569"/>
</g>
<defs>
<clipPath id="clip0_0_1144">
<rect width="40" height="40" fill="white" transform="translate(0.5)"/>
</clipPath>
</defs>
</svg>
