<svg width="41" height="40" viewBox="0 0 41 40" fill="none" xmlns="http://www.w3.org/2000/svg">
<path d="M18.2038 8.0593e-08C22.138 0.000253389 25.9378 1.41376 28.8944 3.97687C31.851 6.53998 33.7625 10.0776 34.2723 13.93L38.8292 21.008C39.1289 21.474 39.0681 22.168 38.3735 22.464L34.406 24.14V30C34.406 31.0609 33.9792 32.0783 33.2196 32.8284C32.46 33.5786 31.4297 34 30.3554 34H26.3069L26.3049 40H8.07745V32.612C8.07745 30.252 7.19443 28.018 5.55599 26.002C3.64758 23.6489 2.4512 20.8113 2.10471 17.816C1.75821 14.8207 2.27569 11.7897 3.59753 9.07223C4.91937 6.35473 6.99177 4.06132 9.57596 2.45623C12.1601 0.851141 15.151 -0.000302452 18.2038 8.0593e-08ZM17.1304 11.526C16.4621 10.8883 15.5669 10.5354 14.6376 10.5431C13.7083 10.5509 12.8193 10.9188 12.162 11.5676C11.5048 12.2164 11.1319 13.0942 11.1236 14.0119C11.1153 14.9296 11.4724 15.8138 12.1179 16.474L18.2038 22.486L24.2897 16.474C24.6282 16.1511 24.8981 15.7648 25.0838 15.3378C25.2694 14.9107 25.3671 14.4514 25.3711 13.9867C25.3751 13.522 25.2853 13.0611 25.107 12.631C24.9287 12.2009 24.6655 11.8102 24.3326 11.4816C23.9998 11.1531 23.604 10.8932 23.1684 10.7174C22.7328 10.5415 22.2661 10.453 21.7955 10.4571C21.3249 10.4613 20.8598 10.5579 20.4275 10.7414C19.9951 10.9249 19.6041 11.1916 19.2772 11.526L18.2038 12.586L17.1304 11.526Z" fill="#054569"/>
</svg>
