<svg width="41" height="36" viewBox="0 0 41 36" fill="none" xmlns="http://www.w3.org/2000/svg">
<g clip-path="url(#clip0_0_1170)">
<path d="M20.5 2.22223C14.8889 2.22223 10.3958 4.77778 7.12497 7.81945C3.87497 10.8333 1.70136 14.4445 0.673584 16.9236C0.444417 17.4722 0.444417 18.0833 0.673584 18.632C1.70136 21.1111 3.87497 24.7222 7.12497 27.7361C10.3958 30.7778 14.8889 33.3333 20.5 33.3333C26.1111 33.3333 30.6041 30.7778 33.875 27.7361C37.125 24.7153 39.2986 21.1111 40.3333 18.632C40.5625 18.0833 40.5625 17.4722 40.3333 16.9236C39.2986 14.4445 37.125 10.8333 33.875 7.81945C30.6041 4.77778 26.1111 2.22223 20.5 2.22223ZM10.5 17.7778C10.5 15.1256 11.5535 12.5821 13.4289 10.7067C15.3043 8.83135 17.8478 7.77778 20.5 7.77778C23.1521 7.77778 25.6957 8.83135 27.571 10.7067C29.4464 12.5821 30.5 15.1256 30.5 17.7778C30.5 20.43 29.4464 22.9735 27.571 24.8489C25.6957 26.7242 23.1521 27.7778 20.5 27.7778C17.8478 27.7778 15.3043 26.7242 13.4289 24.8489C11.5535 22.9735 10.5 20.43 10.5 17.7778ZM20.5 13.3333C20.5 15.7847 18.5069 17.7778 16.0555 17.7778C15.5625 17.7778 15.0903 17.6945 14.6458 17.5486C14.2639 17.4236 13.8194 17.6597 13.8333 18.0625C13.8541 18.5417 13.9236 19.0208 14.0555 19.5C15.0069 23.0556 18.6666 25.1667 22.2222 24.2153C25.7778 23.2639 27.8889 19.6042 26.9375 16.0486C26.1666 13.1667 23.618 11.2292 20.7847 11.1111C20.3819 11.0972 20.1458 11.5347 20.2708 11.9236C20.4166 12.3681 20.5 12.8403 20.5 13.3333Z" fill="#054569"/>
</g>
<defs>
<clipPath id="clip0_0_1170">
<rect width="40" height="35.5556" fill="white" transform="translate(0.5)"/>
</clipPath>
</defs>
</svg>
