<svg width="41" height="40" viewBox="0 0 41 40" fill="none" xmlns="http://www.w3.org/2000/svg">
<path d="M27.1667 11.6667C27.6389 11.6667 28.0345 11.5067 28.3534 11.1867C28.6723 10.8667 28.8323 10.4711 28.8334 10C28.8334 9.52779 28.6734 9.13223 28.3534 8.81334C28.0334 8.49445 27.6378 8.33445 27.1667 8.33334L22.1667 8.33334V5.00001C22.1667 4.52779 22.0067 4.13223 21.6867 3.81334C21.3667 3.49445 20.9712 3.33445 20.5 3.33334C20.0278 3.33334 19.6317 3.49334 19.3117 3.81334C18.9917 4.13334 18.8323 4.5289 18.8334 5.00001V8.33334H13.8334C13.3612 8.33334 12.965 8.49334 12.645 8.81334C12.325 9.13334 12.1656 9.5289 12.1667 10C12.1667 10.4722 12.3267 10.8683 12.6467 11.1883C12.9667 11.5083 13.3623 11.6678 13.8334 11.6667L27.1667 11.6667ZM25.5 36.6667C26.4167 36.6667 27.2012 36.3406 27.8534 35.6883C28.5056 35.0361 28.8323 34.2511 28.8334 33.3333V30H22.1667C21.6945 30 21.2984 29.84 20.9784 29.52C20.6584 29.2 20.4989 28.8045 20.5 28.3333C20.5 27.8611 20.66 27.4656 20.98 27.1467C21.3 26.8278 21.6956 26.6678 22.1667 26.6667H28.8334L28.8334 23.3333H22.1667C21.6945 23.3333 21.2984 23.1733 20.9784 22.8533C20.6584 22.5333 20.4989 22.1378 20.5 21.6667C20.5 21.1945 20.66 20.7989 20.98 20.48C21.3 20.1611 21.6956 20.0011 22.1667 20H28.8334V18.3333C28.8334 16.9445 28.3473 15.7639 27.375 14.7917C26.4028 13.8195 25.2223 13.3333 23.8334 13.3333L17.1667 13.3333C15.7778 13.3333 14.5973 13.8195 13.625 14.7917C12.6528 15.7639 12.1667 16.9445 12.1667 18.3333L12.1667 33.3333C12.1667 34.25 12.4928 35.035 13.145 35.6883C13.7973 36.3417 14.5823 36.6678 15.5 36.6667H25.5Z" fill="#054569"/>
</svg>
