<svg width="41" height="40" viewBox="0 0 41 40" fill="none" xmlns="http://www.w3.org/2000/svg">
<path d="M28.3146 28.3576L29.3386 27.3337C31.1706 25.5017 34.2026 25.5637 36.1105 27.4737C38.0185 29.3796 38.0805 32.4116 36.2485 34.2436L35.2245 35.2676C35.1234 35.0115 35.0113 34.76 34.8886 34.5136C34.2539 33.2692 33.4218 32.1358 32.4246 31.1576C31.4464 30.1604 30.3131 29.3283 29.0686 28.6936C28.8222 28.5709 28.5707 28.4588 28.3146 28.3576ZM25.8627 30.8096L24.9167 31.7556C23.0847 33.5876 23.1467 36.6195 25.0567 38.5275C26.9627 40.4355 29.9946 40.4975 31.8266 38.6655L32.7726 37.7195L32.5726 36.7795L32.5666 36.7575C32.4702 36.4455 32.3485 36.1418 32.2026 35.8495C31.712 34.896 31.0704 34.0281 30.3026 33.2796C29.3026 32.2776 28.3786 31.6996 27.7326 31.3796C27.4404 31.2337 27.1367 31.112 26.8247 31.0156L26.8027 31.0096L25.8627 30.8096ZM7.7349 1.23398C7.5829 1.60198 7.5829 2.06797 7.5829 2.99996C7.5829 3.93195 7.5829 4.39794 7.7349 4.76594C7.93831 5.25501 8.32744 5.64342 8.81688 5.84593C9.18488 5.99992 9.65087 5.99992 10.5829 5.99992H28.5826C29.5146 5.99992 29.9806 5.99992 30.3486 5.84793C30.8377 5.64451 31.2261 5.25539 31.4286 4.76594C31.5826 4.39794 31.5826 3.93195 31.5826 2.99996C31.5826 2.06797 31.5826 1.60198 31.4306 1.23398C31.2272 0.744913 30.8381 0.356509 30.3486 0.153998C29.9806 -1.93713e-07 29.5146 0 28.5826 0H10.5829C9.65087 0 9.18488 -4.47029e-08 8.81688 0.151998C8.32781 0.355414 7.93741 0.744537 7.7349 1.23398ZM11.0829 7.9999L6.58491 11.5979C5.61297 12.3748 4.83571 13.3677 4.31494 14.4978H34.8626C34.3486 13.3703 33.5797 12.3775 32.6166 11.5979L28.1706 7.9999H11.0829Z" fill="#054569"/>
<path fill-rule="evenodd" clip-rule="evenodd" d="M35.5824 17.8158C35.5824 17.7098 35.5804 17.6058 35.5764 17.4998H3.59076C3.58564 17.6144 3.58297 17.7291 3.58276 17.8438V30.4996H22.0505C22.2725 30.1996 22.5205 29.9096 22.7965 29.6336L27.2165 25.2137C29.5044 22.9257 32.8064 22.4597 35.5824 23.5897V17.8158ZM21.0825 22.4997V19.9998C21.0825 19.6019 20.9245 19.2204 20.6432 18.9391C20.3619 18.6578 19.9804 18.4998 19.5826 18.4998C19.1847 18.4998 18.8032 18.6578 18.5219 18.9391C18.2406 19.2204 18.0826 19.6019 18.0826 19.9998V22.4997H15.5826C15.1848 22.4997 14.8033 22.6578 14.522 22.9391C14.2407 23.2204 14.0826 23.6019 14.0826 23.9997C14.0826 24.3975 14.2407 24.779 14.522 25.0604C14.8033 25.3417 15.1848 25.4997 15.5826 25.4997H18.0826V27.9997C18.0826 28.3975 18.2406 28.779 18.5219 29.0603C18.8032 29.3416 19.1847 29.4996 19.5826 29.4996C19.9804 29.4996 20.3619 29.3416 20.6432 29.0603C20.9245 28.779 21.0825 28.3975 21.0825 27.9997V25.4997H23.5825C23.9803 25.4997 24.3619 25.3417 24.6432 25.0604C24.9245 24.779 25.0825 24.3975 25.0825 23.9997C25.0825 23.6019 24.9245 23.2204 24.6432 22.9391C24.3619 22.6578 23.9803 22.4997 23.5825 22.4997H21.0825Z" fill="#054569"/>
<path d="M20.7287 33.4996C20.5107 34.6359 20.5431 35.8061 20.8235 36.9287C21.104 38.0513 21.6258 39.0992 22.3527 39.9995H13.4968C12.3548 39.9995 11.7828 39.9995 11.2428 39.9255C9.63638 39.7054 8.13473 39.0024 6.93689 37.9095C6.5349 37.5415 6.1689 37.1015 5.43691 36.2255C4.76832 35.4226 4.26349 34.4965 3.95093 33.4996H20.7287Z" fill="#054569"/>
</svg>
