<svg width="41" height="40" viewBox="0 0 41 40" fill="none" xmlns="http://www.w3.org/2000/svg">
<path d="M25.2963 15.8857C28.6667 15.8857 30.7407 11 30.7407 7.91429C30.7407 5.34286 29.4444 2.25714 26.8519 2.25714C23.4815 2.25714 21.4074 7.14286 21.4074 10.2286C21.4074 12.8 22.7037 15.8857 25.2963 15.8857ZM15.4444 15.8857C18.037 15.8857 19.3333 12.8 19.3333 10.2286C19.3333 6.88571 17.2593 2 13.8889 2C11.2963 2 10 5.08571 10 7.65714C9.74074 11 11.8148 15.8857 15.4444 15.8857ZM34.6296 13.3143C31.2593 13.3143 28.9259 17.9429 28.9259 21.2857C28.9259 23.6 29.963 25.9143 32.2963 25.9143C35.6667 25.9143 38 21.2857 38 17.9429C38 15.6286 36.7037 13.3143 34.6296 13.3143ZM12.0741 21.2857C12.0741 17.9429 9.48148 13.3143 6.37037 13.3143C4.03704 13.3143 3 15.6286 3 17.9429C3 21.2857 5.59259 25.9143 8.7037 25.9143C11.037 25.9143 12.0741 23.6 12.0741 21.2857ZM20.3704 20.7714C15.1852 20.7714 8.18519 29 8.18519 34.6571C8.18519 37.2286 10 38 12.0741 38C15.1852 38 17.5185 35.9429 20.3704 35.9429C22.963 35.9429 25.2963 38 28.1481 38C30.2222 38 32.5556 37.4857 32.5556 34.6571C32.5556 29 25.5556 20.7714 20.3704 20.7714Z" fill="#054569"/>
</svg>
