<svg width="41" height="40" viewBox="0 0 41 40" fill="none" xmlns="http://www.w3.org/2000/svg">
<g clip-path="url(#clip0_0_1135)">
<path d="M33.405 30.075L27.02 28.4784L26.6516 27.0034C31.0566 26.2617 33.3233 24.9417 33.4233 24.8834C33.6599 24.745 33.8066 24.4934 33.8266 24.22C33.845 23.9466 33.7233 23.6784 33.5083 23.5066C33.4784 23.4834 30.5 21.0234 30.5 12.5C30.5 5.31164 28.8184 1.66664 25.5 1.66664H25.0084C23.8116 0.51 22.9134 0 20.5 0C17.3684 0 10.5 3.14836 10.5 12.5C10.5 21.0234 7.52164 23.4834 7.5 23.5C7.27836 23.6666 7.15336 23.9316 7.16664 24.2084C7.18164 24.4867 7.33164 24.7367 7.57 24.88C7.67 24.94 9.915 26.2666 14.3466 27.0066L13.9783 28.4783L7.59336 30.075C3.41664 31.12 0.5 34.8566 0.5 39.1666C0.5 39.6266 0.873359 40 1.33336 40H39.6667C40.1267 40 40.5001 39.6234 40.5001 39.1634C40.5 34.8566 37.5834 31.12 33.405 30.075Z" fill="#054569"/>
</g>
<defs>
<clipPath id="clip0_0_1135">
<rect width="40" height="40" fill="white" transform="translate(0.5)"/>
</clipPath>
</defs>
</svg>
