<svg width="26" height="26" viewBox="0 0 26 26" fill="none" xmlns="http://www.w3.org/2000/svg">
<path d="M13 0C5.81491 0 0 5.81425 0 13C0 20.185 5.81425 26 13 26C20.1851 26 26 20.1857 26 13C26 5.81501 20.1857 0 13 0ZM14.335 18.1604C14.335 18.5712 13.7361 18.9818 13.0003 18.9818C12.2302 18.9818 11.6827 18.5712 11.6827 18.1604V11.6408C11.6827 11.1617 12.2303 10.8365 13.0003 10.8365C13.7361 10.8365 14.335 11.1617 14.335 11.6408V18.1604ZM13.0003 9.2623C12.2131 9.2623 11.5972 8.6805 11.5972 8.03019C11.5972 7.37994 12.2132 6.81525 13.0003 6.81525C13.7704 6.81525 14.3864 7.37994 14.3864 8.03019C14.3864 8.6805 13.7703 9.2623 13.0003 9.2623Z" fill="#0F5174"/>
</svg>
