<svg width="1153" height="2452" viewBox="0 0 1153 2452" fill="none" xmlns="http://www.w3.org/2000/svg">
<g opacity="0.3" clip-path="url(#clip0_0_12)">
<g opacity="0.3">
<path d="M386.427 1675.12L505.952 1570.04L504.988 1568.95L475.138 1414.48L474.175 1413.38L324.8 1363.99L205.276 1469.08L206.239 1470.17L236.571 1625.19L237.535 1626.29L386.909 1675.67L386.427 1675.12ZM498.874 1567.52L384.833 1667.78L241.09 1619.27L211.39 1470.5L325.431 1370.24L469.174 1418.75L498.874 1567.52Z" fill="white"/>
<path d="M53.9575 1930.5L149.358 1846.63L148.394 1845.53L124.308 1721.94L123.345 1720.85L3.85843 1681.13L-91.5419 1765.01L-90.5783 1766.1L-66.4924 1889.69L-65.5289 1890.79L53.9575 1930.5ZM143.792 1844.72L52.778 1924.74L-62.1062 1885.83L-85.9763 1766.91L5.03781 1686.9L119.922 1725.8L143.792 1844.72Z" fill="white"/>
<path d="M472.609 2006.45L573.492 1917.75L572.528 1916.66L546.848 1785.73L545.884 1784.63L419.32 1742.39L318.437 1831.08L319.401 1832.18L345.081 1963.11L346.045 1964.21L472.609 2006.45ZM567.926 1915.85L471.429 2000.68L349.949 1959.8L324.966 1834.09L421.463 1749.25L542.943 1790.13L567.926 1915.85Z" fill="white"/>
<path d="M744.894 2058.53L803.56 2006.96L787.746 1931.48L714.911 1906.12L656.246 1957.7L672.06 2033.18L744.894 2058.53ZM799.988 2006.21L744.612 2054.9L674.253 2031.26L659.818 1958.45L715.194 1909.76L785.553 1933.4L799.988 2006.21Z" fill="white"/>
<path d="M706.76 1719.95L756.105 1676.57L742.65 1612.61L680.946 1591.08L631.601 1634.46L645.056 1698.41L706.76 1719.95ZM753.081 1675.34L705.929 1716.79L646.701 1696.97L634.625 1635.69L681.777 1594.23L741.005 1614.06L753.081 1675.34Z" fill="white"/>
<path d="M242.999 2134.47L299.472 2084.82L284.555 2011.47L213.714 1987.28L157.241 2036.93L172.158 2110.28L242.999 2134.47ZM295.9 2084.08L242.168 2131.31L174.351 2108.35L160.265 2038.15L213.996 1990.92L281.813 2013.88L295.9 2084.08Z" fill="white"/>
<path d="M15.1904 2074.37L71.663 2024.72L56.7462 1951.37L-14.095 1927.18L-70.5676 1976.83L-55.6507 2050.18L15.1904 2074.37ZM68.091 2023.98L14.3598 2071.22L-53.4576 2048.25L-67.5438 1978.05L-13.8126 1930.82L54.0048 1953.78L68.091 2023.98Z" fill="white"/>
<path d="M289.071 1220.52L339.512 1176.18L326.124 1111.19L263.39 1089.59L212.948 1133.94L226.337 1198.92L289.071 1220.52ZM335.94 1175.43L288.24 1217.37L227.5 1196.93L215.008 1134.07L262.709 1092.14L323.449 1112.57L335.94 1175.43Z" fill="white"/>
<path d="M538.941 1259.28L594.317 1210.6L579.267 1139.3L510.486 1115.25L455.11 1163.93L470.16 1235.23L538.941 1259.28ZM590.745 1209.85L538.658 1255.64L472.353 1233.3L458.682 1164.68L510.768 1118.88L577.074 1141.23L590.745 1209.85Z" fill="white"/>
<path d="M-16.2101 1575.38L66.5798 1502.6L44.5203 1395.69L43.5567 1394.59L-59.7146 1360.05L-142.505 1432.84L-120.445 1539.75L-119.481 1540.84L-16.2101 1575.38ZM61.496 1501.24L-16.9077 1570.17L-116.125 1536.92L-136.391 1434.26L-57.9869 1365.33L41.2306 1398.58L61.496 1501.24Z" fill="white"/>
<path d="M327.49 1370.37L290.297 1217.5L286.11 1218.27L323.304 1371.14L327.49 1370.37Z" fill="white"/>
<path d="M121.216 1721.75L239.645 1617.63L242.535 1620.92L124.107 1725.03L121.216 1721.75Z" fill="white"/>
<path d="M634.012 1637.2L635.789 1633.69L499.491 1566.01L497.713 1569.51L634.012 1637.2Z" fill="white"/>
<path d="M542.182 1785.94L645.258 1695.32L648.149 1698.61L545.072 1789.23L542.182 1785.94Z" fill="white"/>
<path d="M658.653 1960.44L660.43 1956.94L570.6 1914.46L568.274 1918.45L658.653 1960.44Z" fill="white"/>
<path d="M6.61367 1686.48L-14.9141 1571.33L-19.1007 1572.1L3.45697 1687.31L6.61367 1686.48Z" fill="white"/>
<path d="M104.82 1238.72L163.486 1187.14L147.672 1111.66L74.8373 1086.31L16.1716 1137.89L31.9855 1213.37L104.82 1238.72ZM159.914 1186.39L104.538 1235.08L34.1786 1211.44L19.7436 1138.63L75.1196 1089.95L145.479 1113.59L159.914 1186.39Z" fill="white"/>
<path d="M66.6855 900.131L116.031 856.749L102.575 792.795L40.8719 771.26L-8.47314 814.642L4.98198 878.596L66.6855 900.131ZM113.007 855.521L65.8549 896.975L6.62682 877.15L-5.44944 815.87L41.7025 774.416L100.931 794.241L113.007 855.521Z" fill="white"/>
<path d="M-96.8653 966.193L6.21094 875.572L9.10167 878.86L-93.9745 969.481L-96.8653 966.193Z" fill="white"/>
<path d="M19.0601 1141.17L20.8379 1137.67L-69.4742 1094.65L-70.7702 1098.7L19.0601 1141.17Z" fill="white"/>
</g>
<path d="M321.983 1623.94L321.019 1622.84L200.088 1581.48L199.124 1580.39L101.531 1666.19L126.514 1791.9L127.477 1793L248.409 1834.36L249.372 1835.45L346.966 1749.65L321.983 1623.94ZM131.863 1789.14L107.578 1668.64L200.237 1587.18L316.633 1626.7L340.918 1747.2L248.259 1828.66L131.863 1789.14Z" fill="#2C6D37" fill-opacity="0.3"/>
<path d="M567.679 1406.96L470.04 1373.3L391.703 1441.2L411.619 1541.25L509.258 1574.91L587.596 1507.01L567.679 1406.96ZM415.873 1539.45L396.787 1442.56L470.804 1377.48L564.456 1408.82L583.542 1505.72L509.524 1570.79L415.873 1539.45Z" fill="#2C6D37" fill-opacity="0.3"/>
<path d="M583.981 1747.25L583.018 1746.15L481.325 1711.2L398.601 1782.95L419.697 1888.77L420.661 1889.86L522.354 1924.82L605.077 1853.06L583.981 1747.25ZM422.921 1886.91L402.655 1784.25L481.059 1715.32L580.276 1748.56L600.542 1851.22L522.138 1920.15L422.921 1886.91Z" fill="#2C6D37" fill-opacity="0.3"/>
<path d="M606.384 2017.08L546.674 1996.71L499.522 2038.16L511.598 2099.44L571.308 2119.82L618.46 2078.36L606.384 2017.08ZM514.273 2098.06L502.546 2039.39L547.505 1999.87L604.191 2019.01L615.918 2077.68L570.959 2117.21L514.273 2098.06Z" fill="#2C6D37" fill-opacity="0.3"/>
<path d="M339.036 1960.66L288.946 1943.48L248.921 1978.67L259.536 2030.55L309.626 2047.72L349.651 2012.53L339.518 1961.2L339.036 1960.66ZM261.181 2029.1L251.463 1979.35L289.843 1945.61L337.94 1961.62L347.657 2011.37L309.278 2045.11L261.181 2029.1Z" fill="#2C6D37" fill-opacity="0.3"/>
<path d="M720.837 1622.08L663.669 1602.38L618.162 1642.39L629.889 1701.06L687.057 1720.76L732.565 1680.75L720.837 1622.08ZM632.016 1700.16L620.704 1643.07L664.566 1604.51L719.741 1623.04L731.053 1680.13L687.19 1718.69L632.016 1700.16Z" fill="#2C6D37" fill-opacity="0.3"/>
<path d="M695.306 1432.72L638.138 1413.02L592.631 1453.03L604.358 1511.7L661.526 1531.4L707.033 1491.39L695.306 1432.72ZM606.485 1510.81L595.173 1453.71L639.035 1415.15L694.209 1433.68L705.521 1490.77L661.659 1529.34L606.485 1510.81Z" fill="#2C6D37" fill-opacity="0.3"/>
<path d="M456.591 1181.09L392.346 1158.88L341.356 1203.7L354.678 1269.72L418.923 1291.93L469.913 1247.11L456.591 1181.09ZM357.353 1268.34L344.38 1204.93L393.176 1162.03L454.398 1183.02L467.371 1246.43L418.575 1289.33L357.353 1268.34Z" fill="#2C6D37" fill-opacity="0.3"/>
<path d="M55.4264 1290.89L19.4909 1278.76L-9.01956 1303.83L-1.59448 1341.02L34.3412 1353.15L62.8516 1328.08L55.4264 1290.89ZM0.0503416 1339.57L-6.95944 1303.96L20.4545 1279.86L54.8781 1291.37L61.888 1326.99L34.4741 1351.09L0.0503416 1339.57Z" fill="#2C6D37" fill-opacity="0.3"/>
<path d="M-20.0628 1571L-71.6652 1553.22L-112.238 1588.89L-101.69 1641.79L-50.0874 1659.58L-9.51488 1623.91L-20.0628 1571ZM-99.5631 1640.89L-110.244 1590.05L-71.3165 1555.82L-22.2559 1572.93L-12.0567 1623.23L-50.9844 1657.45L-99.5631 1640.89Z" fill="#2C6D37" fill-opacity="0.3"/>
<path d="M-15.9311 1771.4L-71.5872 1752.32L-115.998 1791.36L-104.204 1849.01L-48.5477 1868.09L-4.1372 1829.04L-15.9311 1771.4ZM-102.559 1847.56L-113.456 1792.04L-70.6901 1754.45L-17.0276 1772.36L-6.13079 1827.88L-48.8964 1865.48L-102.559 1847.56Z" fill="#2C6D37" fill-opacity="0.3"/>
<path d="M290.942 1327.69L206.976 1298.53L139.604 1356.79L157.295 1443.25L241.261 1472.41L308.633 1414.16L290.942 1327.69ZM159.97 1441.87L143.11 1358.56L207.258 1302.16L287.719 1329.56L304.579 1412.86L240.43 1469.26L159.97 1441.87Z" fill="#2C6D37" fill-opacity="0.3"/>
<path d="M106.964 1670.15L-12.6049 1623.71L-11.3754 1620.69L107.712 1666.58L106.964 1670.15Z" fill="#2C6D37" fill-opacity="0.3"/>
<path d="M141.049 1358.43L60.3066 1327.4L61.4697 1325.41L142.212 1356.44L141.049 1358.43Z" fill="#2C6D37" fill-opacity="0.3"/>
<path d="M315.739 1624.57L411.688 1540.22L414.097 1542.96L318.148 1627.31L315.739 1624.57Z" fill="#2C6D37" fill-opacity="0.3"/>
<path d="M290.389 1945.13L287.232 1945.96L246.682 1829.08L249.839 1828.24L290.389 1945.13Z" fill="#2C6D37" fill-opacity="0.3"/>
<path d="M335.945 1960.46L419.832 1886.71L422.241 1889.45L338.354 1963.2L335.945 1960.46Z" fill="#2C6D37" fill-opacity="0.3"/>
<path d="M548.603 1998.9L545.446 1999.73L520.428 1922.63L523.585 1921.8L548.603 1998.9Z" fill="#2C6D37" fill-opacity="0.3"/>
<path d="M395.623 1444.55L304.994 1414.44L306.224 1411.42L396.852 1441.53L395.623 1444.55Z" fill="#2C6D37" fill-opacity="0.3"/>
<path d="M286.889 1326.4L354.875 1266.63L357.284 1269.37L289.297 1329.14L286.889 1326.4Z" fill="#2C6D37" fill-opacity="0.3"/>
<path d="M-27.0282 805.697L-124.667 772.035L-203.005 839.934L-183.088 939.985L-85.4487 973.647L-7.11148 905.747L-27.0282 805.697ZM-178.835 938.189L-197.921 841.294L-123.903 776.221L-30.2513 807.559L-11.1653 904.453L-85.1828 969.527L-178.835 938.189Z" fill="#2C6D37" fill-opacity="0.3"/>
<path d="M-10.7258 1145.99L-11.6894 1144.89L-113.382 1109.94L-196.106 1181.69L-175.01 1287.51L-174.046 1288.6L-72.3533 1323.56L10.3702 1251.8L-10.7258 1145.99ZM-171.787 1285.64L-192.052 1182.99L-113.648 1114.06L-14.4308 1147.3L5.83467 1249.96L-72.569 1318.89L-171.787 1285.64Z" fill="#2C6D37" fill-opacity="0.3"/>
<path d="M12.2237 1415.34L-47.4862 1394.97L-94.6381 1436.42L-82.5619 1497.7L-22.852 1518.07L24.2999 1476.62L12.2237 1415.34ZM-79.887 1496.32L-91.6145 1437.65L-46.6557 1398.12L10.0306 1417.27L21.7579 1475.94L-23.2009 1515.46L-79.887 1496.32Z" fill="#2C6D37" fill-opacity="0.3"/>
<path d="M126.126 1020.81L68.958 1001.12L23.4509 1041.13L35.1783 1099.8L92.3463 1119.49L137.853 1079.48L126.126 1020.81ZM37.3049 1098.9L25.9928 1041.81L69.855 1003.25L125.029 1021.78L136.342 1078.87L92.4793 1117.43L37.3049 1098.9Z" fill="#2C6D37" fill-opacity="0.3"/>
<path d="M101.146 830.972L43.9775 811.279L-1.52953 851.287L10.1979 909.959L67.3659 929.652L112.873 889.644L101.146 830.972ZM12.3245 909.061L1.01237 851.967L44.8746 813.405L100.049 831.936L111.361 889.03L67.4988 927.592L12.3245 909.061Z" fill="#2C6D37" fill-opacity="0.3"/>
</g>
<defs>
<clipPath id="clip0_0_12">
<rect width="1138.86" height="2263.45" fill="white" transform="matrix(-0.751024 0.660275 0.660275 0.751024 -341.688 0)"/>
</clipPath>
</defs>
</svg>
