<svg width="1217" height="2452" viewBox="0 0 1217 2452" fill="none" xmlns="http://www.w3.org/2000/svg">
<g opacity="0.3" clip-path="url(#clip0_0_103)">
<g opacity="0.3">
<path d="M766.386 1675.12L646.861 1570.04L647.825 1568.95L677.674 1414.48L678.638 1413.38L828.013 1363.99L947.537 1469.08L946.574 1470.17L916.242 1625.19L915.278 1626.29L765.904 1675.67L766.386 1675.12ZM653.938 1567.52L767.98 1667.78L911.723 1619.27L941.423 1470.5L827.382 1370.24L683.639 1418.75L653.938 1567.52Z" fill="white"/>
<path d="M1098.86 1930.5L1003.46 1846.63L1004.42 1845.53L1028.5 1721.94L1029.47 1720.85L1148.95 1681.13L1244.35 1765.01L1243.39 1766.1L1219.31 1889.69L1218.34 1890.79L1098.86 1930.5ZM1009.02 1844.72L1100.03 1924.74L1214.92 1885.83L1238.79 1766.91L1147.78 1686.9L1032.89 1725.8L1009.02 1844.72Z" fill="white"/>
<path d="M680.204 2006.45L579.321 1917.75L580.285 1916.66L605.965 1785.73L606.929 1784.63L733.493 1742.39L834.376 1831.09L833.412 1832.18L807.732 1963.11L806.768 1964.21L680.204 2006.45ZM584.887 1915.85L681.384 2000.68L802.864 1959.8L827.847 1834.09L731.35 1749.25L609.87 1790.13L584.887 1915.85Z" fill="white"/>
<path d="M407.919 2058.53L349.253 2006.96L365.067 1931.48L437.901 1906.13L496.567 1957.7L480.753 2033.18L407.919 2058.53ZM352.825 2006.21L408.201 2054.9L478.56 2031.26L492.995 1958.45L437.619 1909.76L367.26 1933.4L352.825 2006.21Z" fill="white"/>
<path d="M446.053 1719.95L396.708 1676.57L410.163 1612.61L471.867 1591.08L521.212 1634.46L507.757 1698.41L446.053 1719.95ZM399.732 1675.34L446.884 1716.79L506.112 1696.97L518.188 1635.69L471.036 1594.23L411.808 1614.06L399.732 1675.34Z" fill="white"/>
<path d="M909.814 2134.47L853.341 2084.82L868.258 2011.47L939.099 1987.28L995.572 2036.93L980.655 2110.28L909.814 2134.47ZM856.913 2084.08L910.645 2131.32L978.462 2108.35L992.548 2038.15L938.817 1990.92L870.999 2013.88L856.913 2084.08Z" fill="white"/>
<path d="M1137.62 2074.37L1081.15 2024.72L1096.07 1951.37L1166.91 1927.18L1223.38 1976.83L1208.46 2050.18L1137.62 2074.37ZM1084.72 2023.98L1138.45 2071.22L1206.27 2048.25L1220.36 1978.05L1166.63 1930.82L1098.81 1953.78L1084.72 2023.98Z" fill="white"/>
<path d="M1236.21 1262.35L1201.12 1231.5L1210.08 1185.93L1254.12 1171.22L1289.21 1202.06L1280.26 1247.63L1236.21 1262.35ZM1203.12 1230.33L1236.56 1259.74L1279.09 1245.64L1287.63 1201.65L1254.19 1172.25L1211.65 1186.35L1203.12 1230.33Z" fill="white"/>
<path d="M863.746 1220.52L813.305 1176.18L826.693 1111.19L889.427 1089.59L939.868 1133.94L926.48 1198.92L863.746 1220.52ZM816.877 1175.43L864.577 1217.37L925.317 1196.93L937.808 1134.07L890.108 1092.14L829.368 1112.57L816.877 1175.43Z" fill="white"/>
<path d="M613.872 1259.28L558.496 1210.6L573.546 1139.3L642.327 1115.25L697.703 1163.93L682.653 1235.23L613.872 1259.28ZM562.068 1209.85L614.155 1255.65L680.46 1233.3L694.131 1164.68L642.045 1118.88L575.739 1141.23L562.068 1209.85Z" fill="white"/>
<path d="M1169.02 1575.38L1086.23 1502.6L1108.29 1395.69L1109.25 1394.59L1212.52 1360.05L1295.31 1432.84L1273.25 1539.75L1272.29 1540.84L1169.02 1575.38ZM1091.31 1501.24L1169.72 1570.17L1268.93 1536.92L1289.2 1434.26L1210.8 1365.33L1111.58 1398.58L1091.31 1501.24Z" fill="white"/>
<path d="M825.319 1370.37L862.512 1217.5L866.699 1218.27L829.505 1371.14L825.319 1370.37Z" fill="white"/>
<path d="M1210.67 1363.27L1235.53 1259.8L1238.69 1260.64L1213.82 1364.11L1210.67 1363.27Z" fill="white"/>
<path d="M1031.6 1721.75L913.168 1617.63L910.278 1620.92L1028.71 1725.03L1031.6 1721.75Z" fill="white"/>
<path d="M518.801 1637.2L517.023 1633.69L653.322 1566.01L655.1 1569.52L518.801 1637.2Z" fill="white"/>
<path d="M610.631 1785.94L507.555 1695.32L504.664 1698.61L607.74 1789.23L610.631 1785.94Z" fill="white"/>
<path d="M494.16 1960.44L492.383 1956.94L582.213 1914.46L584.539 1918.45L494.16 1960.44Z" fill="white"/>
<path d="M1146.2 1686.48L1167.72 1571.33L1171.91 1572.1L1149.35 1687.31L1146.2 1686.48Z" fill="white"/>
<path d="M1320.28 1186.63L1219.4 1097.94L1220.36 1096.84L1246.04 965.909L1247 964.813L1373.57 922.575L1474.45 1011.27L1473.49 1012.36L1447.81 1143.3L1446.84 1144.39L1320.28 1186.63ZM1224.96 1096.03L1321.46 1180.86L1442.94 1139.99L1467.92 1014.27L1371.42 929.435L1249.94 970.313L1224.96 1096.03Z" fill="white"/>
<path d="M1047.99 1238.72L989.327 1187.14L1005.14 1111.66L1077.98 1086.31L1136.64 1137.88L1120.83 1213.37L1047.99 1238.72ZM992.899 1186.39L1048.27 1235.08L1118.63 1211.44L1133.07 1138.63L1077.69 1089.95L1007.33 1113.59L992.899 1186.39Z" fill="white"/>
<path d="M1086.13 900.131L1036.78 856.749L1050.24 792.795L1111.94 771.26L1161.29 814.643L1147.83 878.596L1086.13 900.131ZM1039.81 855.521L1086.96 896.975L1146.19 877.15L1158.26 815.871L1111.11 774.416L1051.88 794.241L1039.81 855.521Z" fill="white"/>
<path d="M1253.47 440.014L1198.09 391.33L1213.14 320.034L1281.92 295.977L1337.3 344.662L1322.25 415.957L1253.47 440.014ZM1201.66 390.584L1253.75 436.376L1320.05 414.029L1333.72 345.408L1281.64 299.615L1215.88 322.444L1202.21 391.066L1201.66 390.584Z" fill="white"/>
<path d="M1158.88 817.383L1157.1 813.877L1293.4 746.192L1294.7 750.246L1158.88 817.383Z" fill="white"/>
<path d="M1249.68 966.193L1146.6 875.572L1143.71 878.86L1246.79 969.481L1249.68 966.193Z" fill="white"/>
<path d="M1133.75 1141.17L1131.97 1137.67L1222.29 1094.65L1223.58 1098.7L1133.75 1141.17Z" fill="white"/>
</g>
<path d="M830.83 1623.94L831.793 1622.84L952.725 1581.48L953.689 1580.39L1051.28 1666.19L1026.3 1791.9L1025.34 1793L904.404 1834.36L903.44 1835.45L805.847 1749.65L830.83 1623.94ZM1020.95 1789.14L1045.23 1668.64L952.576 1587.18L836.18 1626.7L811.894 1747.2L904.553 1828.66L1020.95 1789.14Z" fill="#2C6D37" fill-opacity="0.3"/>
<path d="M585.134 1406.96L682.773 1373.3L761.11 1441.2L741.193 1541.25L643.554 1574.91L565.217 1507.01L585.134 1406.96ZM736.94 1539.45L756.026 1442.56L682.009 1377.48L588.357 1408.82L569.271 1505.72L643.288 1570.79L736.94 1539.45Z" fill="#2C6D37" fill-opacity="0.3"/>
<path d="M568.832 1747.25L569.795 1746.15L671.488 1711.2L754.212 1782.95L733.115 1888.77L732.152 1889.86L630.459 1924.82L547.736 1853.06L568.832 1747.25ZM729.892 1886.91L750.158 1784.25L671.754 1715.32L572.536 1748.56L552.271 1851.22L630.675 1920.15L729.892 1886.91Z" fill="#2C6D37" fill-opacity="0.3"/>
<path d="M546.429 2017.08L606.139 1996.71L653.291 2038.16L641.214 2099.44L581.504 2119.82L534.353 2078.36L546.429 2017.08ZM638.54 2098.06L650.267 2039.39L605.308 1999.87L548.622 2019.01L536.895 2077.68L581.853 2117.21L638.54 2098.06Z" fill="#2C6D37" fill-opacity="0.3"/>
<path d="M813.777 1960.66L863.867 1943.48L903.891 1978.67L893.277 2030.55L843.186 2047.72L803.162 2012.53L813.295 1961.2L813.777 1960.66ZM891.632 2029.1L901.35 1979.35L862.97 1945.61L814.873 1961.62L805.156 2011.37L843.535 2045.11L891.632 2029.1Z" fill="#2C6D37" fill-opacity="0.3"/>
<path d="M431.976 1622.07L489.144 1602.38L534.651 1642.39L522.923 1701.06L465.755 1720.75L420.248 1680.75L431.976 1622.07ZM520.797 1700.16L532.109 1643.07L488.247 1604.51L433.072 1623.04L421.76 1680.13L465.622 1718.69L520.797 1700.16Z" fill="#2C6D37" fill-opacity="0.3"/>
<path d="M457.507 1432.72L514.675 1413.02L560.182 1453.03L548.455 1511.7L491.287 1531.4L445.78 1491.39L457.507 1432.72ZM546.328 1510.8L557.64 1453.71L513.778 1415.15L458.604 1433.68L447.291 1490.77L491.154 1529.34L546.328 1510.8Z" fill="#2C6D37" fill-opacity="0.3"/>
<path d="M696.222 1181.09L760.467 1158.88L811.457 1203.7L798.135 1269.72L733.889 1291.93L682.9 1247.1L696.222 1181.09ZM795.46 1268.34L808.433 1204.93L759.636 1162.03L698.415 1183.02L685.441 1246.42L734.238 1289.33L795.46 1268.34Z" fill="#2C6D37" fill-opacity="0.3"/>
<path d="M1097.39 1290.89L1133.32 1278.76L1161.83 1303.83L1154.41 1341.02L1118.47 1353.15L1089.96 1328.08L1097.39 1290.89ZM1152.76 1339.57L1159.77 1303.96L1132.36 1279.86L1097.93 1291.37L1090.92 1326.99L1118.34 1351.09L1152.76 1339.57Z" fill="#2C6D37" fill-opacity="0.3"/>
<path d="M1172.88 1571L1224.48 1553.21L1265.05 1588.88L1254.5 1641.79L1202.9 1659.58L1162.33 1623.91L1172.88 1571ZM1252.38 1640.89L1263.06 1590.05L1224.13 1555.82L1175.07 1572.93L1164.87 1623.23L1203.8 1657.45L1252.38 1640.89Z" fill="#2C6D37" fill-opacity="0.3"/>
<path d="M1168.74 1771.4L1224.4 1752.32L1268.81 1791.36L1257.02 1849.01L1201.36 1868.08L1156.95 1829.04L1168.74 1771.4ZM1255.37 1847.56L1266.27 1792.04L1223.5 1754.45L1169.84 1772.36L1158.94 1827.88L1201.71 1865.48L1255.37 1847.56Z" fill="#2C6D37" fill-opacity="0.3"/>
<path d="M861.871 1327.69L945.837 1298.53L1013.21 1356.79L995.518 1443.25L911.552 1472.41L844.18 1414.16L861.871 1327.69ZM992.843 1441.87L1009.7 1358.56L945.555 1302.16L865.094 1329.56L848.234 1412.86L912.382 1469.26L992.843 1441.87Z" fill="#2C6D37" fill-opacity="0.3"/>
<path d="M1045.85 1670.15L1165.42 1623.71L1164.19 1620.69L1045.1 1666.58L1045.85 1670.15Z" fill="#2C6D37" fill-opacity="0.3"/>
<path d="M1011.76 1358.43L1092.51 1327.4L1091.34 1325.41L1010.6 1356.44L1011.76 1358.43Z" fill="#2C6D37" fill-opacity="0.3"/>
<path d="M837.074 1624.57L741.125 1540.22L738.716 1542.96L834.665 1627.31L837.074 1624.57Z" fill="#2C6D37" fill-opacity="0.3"/>
<path d="M862.424 1945.13L865.58 1945.96L906.131 1829.07L902.974 1828.24L862.424 1945.13Z" fill="#2C6D37" fill-opacity="0.3"/>
<path d="M816.867 1960.46L732.981 1886.71L730.572 1889.45L814.458 1963.2L816.867 1960.46Z" fill="#2C6D37" fill-opacity="0.3"/>
<path d="M604.21 1998.9L607.367 1999.73L632.385 1922.63L629.228 1921.8L604.21 1998.9Z" fill="#2C6D37" fill-opacity="0.3"/>
<path d="M757.19 1444.55L847.818 1414.44L846.589 1411.42L755.961 1441.53L757.19 1444.55Z" fill="#2C6D37" fill-opacity="0.3"/>
<path d="M865.924 1326.4L797.938 1266.63L795.529 1269.37L863.515 1329.14L865.924 1326.4Z" fill="#2C6D37" fill-opacity="0.3"/>
<path d="M1179.84 805.697L1277.48 772.034L1355.82 839.934L1335.9 939.984L1238.26 973.647L1159.92 905.747L1179.84 805.697ZM1331.65 938.188L1350.73 841.294L1276.72 776.22L1183.06 807.559L1163.98 904.453L1238 969.527L1331.65 938.188Z" fill="#2C6D37" fill-opacity="0.3"/>
<path d="M1163.54 1145.99L1164.5 1144.89L1266.2 1109.94L1348.92 1181.69L1327.82 1287.51L1326.86 1288.6L1225.17 1323.56L1142.44 1251.8L1163.54 1145.99ZM1324.6 1285.64L1344.86 1182.99L1266.46 1114.06L1167.24 1147.3L1146.98 1249.96L1225.38 1318.89L1324.6 1285.64Z" fill="#2C6D37" fill-opacity="0.3"/>
<path d="M1140.59 1415.34L1200.3 1394.97L1247.45 1436.42L1235.37 1497.7L1175.66 1518.07L1128.51 1476.62L1140.59 1415.34ZM1232.7 1496.32L1244.43 1437.65L1199.47 1398.12L1142.78 1417.27L1131.05 1475.94L1176.01 1515.46L1232.7 1496.32Z" fill="#2C6D37" fill-opacity="0.3"/>
<path d="M1026.69 1020.81L1083.85 1001.12L1129.36 1041.13L1117.63 1099.8L1060.47 1119.49L1014.96 1079.48L1026.69 1020.81ZM1115.51 1098.9L1126.82 1041.81L1082.96 1003.25L1027.78 1021.78L1016.47 1078.87L1060.33 1117.43L1115.51 1098.9Z" fill="#2C6D37" fill-opacity="0.3"/>
<path d="M1051.67 830.972L1108.84 811.279L1154.34 851.287L1142.61 909.959L1085.45 929.652L1039.94 889.643L1051.67 830.972ZM1140.49 909.061L1151.8 851.967L1107.94 813.405L1052.76 831.936L1041.45 889.029L1085.31 927.592L1140.49 909.061Z" fill="#2C6D37" fill-opacity="0.3"/>
<path d="M1198.37 1397.16L1201.53 1397.99L1226.54 1320.88L1223.39 1320.05L1198.37 1397.16Z" fill="#2C6D37" fill-opacity="0.3"/>
</g>
<defs>
<clipPath id="clip0_0_103">
<rect width="1138.86" height="2263.45" fill="white" transform="translate(1494.5) rotate(41.3208)"/>
</clipPath>
</defs>
</svg>
